<svg version="1" xmlns="http://www.w3.org/2000/svg" width="933.333" height="933.333" viewBox="0 0 700.000000 700.000000"><path d="M137.8 1c-30.1 5.1-53.6 26-63 56l-2.3 7.5v610l2.8 5.5c3.9 7.5 9.8 13.3 17.1 16.7l6.1 2.8 220.8.3 220.9.2 3.7-2.1c2.1-1.1 4.6-3.5 5.7-5.2 1.9-3.1 1.9-9.6 1.9-298.2 0-293.2 0-295-2-298.4-1.1-1.8-3.6-4.2-5.5-5.2-3.3-1.8-10.2-1.9-199.9-1.9-147.6 0-197.3-.3-200.3-1.2-5.1-1.5-12.6-8.2-14.9-13.3-6.3-13.8 2.6-31.4 17.3-34.4 3.8-.8 67.9-1 219-.9l213.7.3 2.3 2.3 2.3 2.3.5 294.4.5 294.4 2.1 2.8c3.9 5.3 7.6 6.4 20.6 6.1 13.1-.3 15.8-1.4 19-7.9 1.7-3.2 1.8-20.2 1.8-313.5V10.3l-2.3-3.4c-1.2-1.9-3.8-4.2-5.7-5.1C616.7.1 603.3 0 379.5.1 249.2.2 140.4.6 137.8 1zm201.8 270.1c-5.3 45.9-9.8 84.9-10.1 86.6l-.6 3.3H389c46.5 0 60.1.3 59.8 1.2-.9 2.5-159.3 261.6-159.6 260.9-.2-.7 18.3-163.5 19.3-169.9l.6-3.2H249c-39.1 0-60-.3-59.8-1 .6-1.7 159.3-261.7 159.6-261.5.2.2-4 37.8-9.2 83.6z"/></svg>